<svg width="14" height="14" viewBox="0 0 14 14" fill="none" xmlns="http://www.w3.org/2000/svg">
<path d="M8.24 8.15333C7.79435 8.51264 7.23913 8.70859 6.66667 8.70859C6.09421 8.70859 5.53899 8.51264 5.09334 8.15333C4.95719 8.04017 4.78167 7.98573 4.60539 8.00199C4.4291 8.01824 4.2665 8.10386 4.15334 8.24C4.04018 8.37614 3.98574 8.55167 4.00199 8.72795C4.01824 8.90423 4.10386 9.06684 4.24 9.18C4.92089 9.7484 5.77971 10.0598 6.66667 10.0598C7.55363 10.0598 8.41245 9.7484 9.09334 9.18C9.22948 9.06684 9.3151 8.90423 9.33135 8.72795C9.3476 8.55167 9.29316 8.37614 9.18 8.24C9.12397 8.17259 9.05521 8.11687 8.97765 8.07603C8.90009 8.0352 8.81524 8.01003 8.72795 8.00199C8.55167 7.98573 8.37615 8.04017 8.24 8.15333V8.15333ZM4.80667 5.69333C4.93158 5.8175 5.10055 5.8872 5.27667 5.8872C5.45279 5.8872 5.62176 5.8175 5.74667 5.69333C5.87084 5.56843 5.94053 5.39946 5.94053 5.22333C5.94053 5.04721 5.87084 4.87824 5.74667 4.75333C5.36515 4.39133 4.85927 4.18952 4.33334 4.18952C3.8074 4.18952 3.30152 4.39133 2.92 4.75333C2.85022 4.8131 2.79353 4.88664 2.75352 4.96935C2.7135 5.05206 2.69102 5.14215 2.68747 5.23396C2.68392 5.32578 2.69939 5.41733 2.73291 5.50288C2.76643 5.58843 2.81727 5.66613 2.88224 5.7311C2.94721 5.79607 3.0249 5.84691 3.11045 5.88043C3.196 5.91394 3.28756 5.92941 3.37937 5.92587C3.47118 5.92232 3.56127 5.89983 3.64398 5.85982C3.72669 5.8198 3.80024 5.76312 3.86 5.69333C3.92198 5.63085 3.99571 5.58125 4.07695 5.54741C4.15819 5.51356 4.24533 5.49613 4.33334 5.49613C4.42134 5.49613 4.50848 5.51356 4.58972 5.54741C4.67096 5.58125 4.74469 5.63085 4.80667 5.69333V5.69333ZM10.4133 4.75333C10.0318 4.39133 9.52594 4.18952 9 4.18952C8.47407 4.18952 7.96819 4.39133 7.58667 4.75333C7.47745 4.88087 7.42038 5.04492 7.42686 5.2127C7.43334 5.38049 7.5029 5.53965 7.62163 5.65838C7.74036 5.77711 7.89952 5.84666 8.0673 5.85314C8.23509 5.85962 8.39914 5.80255 8.52667 5.69333C8.58865 5.63085 8.66238 5.58125 8.74362 5.54741C8.82486 5.51356 8.912 5.49613 9 5.49613C9.08801 5.49613 9.17515 5.51356 9.25639 5.54741C9.33763 5.58125 9.41136 5.63085 9.47334 5.69333C9.59824 5.8175 9.76721 5.8872 9.94334 5.8872C10.1195 5.8872 10.2884 5.8175 10.4133 5.69333C10.5375 5.56843 10.6072 5.39946 10.6072 5.22333C10.6072 5.04721 10.5375 4.87824 10.4133 4.75333V4.75333ZM6.66667 0C5.34813 0 4.0592 0.390993 2.96287 1.12354C1.86654 1.85608 1.01206 2.89727 0.507473 4.11544C0.00288856 5.33362 -0.129134 6.67406 0.128101 7.96727C0.385336 9.26048 1.02027 10.4484 1.95262 11.3807C2.88497 12.3131 4.07286 12.948 5.36607 13.2052C6.65927 13.4625 7.99972 13.3304 9.21789 12.8259C10.4361 12.3213 11.4773 11.4668 12.2098 10.3705C12.9423 9.27414 13.3333 7.98521 13.3333 6.66667C13.3333 5.79119 13.1609 4.92428 12.8259 4.11544C12.4908 3.30661 11.9998 2.57168 11.3807 1.95262C10.7617 1.33356 10.0267 0.842501 9.21789 0.50747C8.40906 0.172438 7.54215 0 6.66667 0V0ZM6.66667 12C5.61184 12 4.58069 11.6872 3.70363 11.1012C2.82657 10.5151 2.14298 9.68218 1.73931 8.70765C1.33565 7.73311 1.23003 6.66075 1.43582 5.62619C1.6416 4.59162 2.14955 3.64131 2.89543 2.89543C3.64131 2.14955 4.59162 1.6416 5.62619 1.43581C6.66075 1.23002 7.73311 1.33564 8.70765 1.73931C9.68219 2.14298 10.5151 2.82656 11.1012 3.70363C11.6872 4.58069 12 5.61183 12 6.66667C12 8.08115 11.4381 9.43771 10.4379 10.4379C9.43771 11.4381 8.08116 12 6.66667 12V12Z" fill="#F9FAFB"/>
</svg>
